<?xml version="1.0" encoding="utf-8"?>
<!-- Generator: Adobe Illustrator 16.2.1, SVG Export Plug-In . SVG Version: 6.00 Build 0)  -->
<!DOCTYPE svg PUBLIC "-//W3C//DTD SVG 1.1//EN" "http://www.w3.org/Graphics/SVG/1.1/DTD/svg11.dtd">
<svg version="1.1" id="Layer_1" xmlns="http://www.w3.org/2000/svg" xmlns:xlink="http://www.w3.org/1999/xlink" x="0px" y="0px"
	 width="25px" height="25px" viewBox="285.14 408.445 25 25" enable-background="new 285.14 408.445 25 25" xml:space="preserve">
<linearGradient id="SVGID_1_" gradientUnits="userSpaceOnUse" x1="314.3958" y1="359.5103" x2="314.3958" y2="379.0098" gradientTransform="matrix(1 0 0 1 -16.7197 50.1094)">
	<stop  offset="0" style="stop-color:#EFA728"/>
	<stop  offset="1" style="stop-color:#C66928"/>
</linearGradient>
<rect x="286.95" y="409.62" fill="url(#SVGID_1_)" width="21.451" height="19.499"/>
<linearGradient id="SVGID_2_" gradientUnits="userSpaceOnUse" x1="314.3958" y1="360.4854" x2="314.3958" y2="378.0352" gradientTransform="matrix(1 0 0 1 -16.7197 50.1094)">
	<stop  offset="0" style="stop-color:#FCE9A6"/>
	<stop  offset="1" style="stop-color:#F5BC24"/>
</linearGradient>
<rect x="287.926" y="410.595" fill="url(#SVGID_2_)" width="19.5" height="17.549"/>
<linearGradient id="SVGID_3_" gradientUnits="userSpaceOnUse" x1="314.3958" y1="361.4604" x2="314.3958" y2="377.0605" gradientTransform="matrix(1 0 0 1 -16.7197 50.1094)">
	<stop  offset="0" style="stop-color:#FFC214"/>
	<stop  offset="1" style="stop-color:#F2AD1C"/>
</linearGradient>
<rect x="288.901" y="411.57" fill="url(#SVGID_3_)" width="17.55" height="15.6"/>
<linearGradient id="SVGID_4_" gradientUnits="userSpaceOnUse" x1="314.3958" y1="359.5103" x2="314.3958" y2="366.3354" gradientTransform="matrix(1 0 0 1 -16.7197 50.1094)">
	<stop  offset="0" style="stop-color:#EFA728"/>
	<stop  offset="1" style="stop-color:#C66928"/>
</linearGradient>
<rect x="285.975" y="409.62" fill="url(#SVGID_4_)" width="23.401" height="6.825"/>
<linearGradient id="SVGID_5_" gradientUnits="userSpaceOnUse" x1="314.3958" y1="360.4854" x2="314.3958" y2="365.3604" gradientTransform="matrix(1 0 0 1 -16.7197 50.1094)">
	<stop  offset="0" style="stop-color:#FCE9A6"/>
	<stop  offset="1" style="stop-color:#F5BC24"/>
</linearGradient>
<rect x="286.95" y="410.595" fill="url(#SVGID_5_)" width="21.451" height="4.875"/>
<linearGradient id="SVGID_6_" gradientUnits="userSpaceOnUse" x1="314.3958" y1="361.4604" x2="314.3958" y2="364.3853" gradientTransform="matrix(1 0 0 1 -16.7197 50.1094)">
	<stop  offset="0" style="stop-color:#FFC214"/>
	<stop  offset="1" style="stop-color:#F2AD1C"/>
</linearGradient>
<rect x="287.926" y="411.57" fill="url(#SVGID_6_)" width="19.5" height="2.925"/>
<linearGradient id="SVGID_7_" gradientUnits="userSpaceOnUse" x1="310.0061" y1="359.5103" x2="310.0061" y2="372.1855" gradientTransform="matrix(1 0 0 1 -16.7197 50.1094)">
	<stop  offset="0" style="stop-color:#7C9ED2"/>
	<stop  offset="1" style="stop-color:#1B75BA"/>
</linearGradient>
<polygon fill="url(#SVGID_7_)" points="290.848,409.62 290.848,412.544 290.848,419.37 290.848,422.294 293.286,420.345 
	295.723,422.294 295.723,419.37 295.723,412.544 295.723,409.62 "/>
<polygon fill="#4797BF" points="291.823,410.595 291.823,413.52 291.823,417.322 291.823,420.247 293.286,419.077 294.749,420.247 
	294.749,417.322 294.749,413.52 294.749,410.595 "/>
<g>
	
		<linearGradient id="SVGID_8_" gradientUnits="userSpaceOnUse" x1="321.8684" y1="369.749" x2="321.8684" y2="381.9365" gradientTransform="matrix(1 0 0 1 -16.7197 50.1094)">
		<stop  offset="0" style="stop-color:#99BCE3"/>
		<stop  offset="0.5569" style="stop-color:#89ABD9"/>
		<stop  offset="1" style="stop-color:#80A2D4"/>
	</linearGradient>
	<polygon fill="url(#SVGID_8_)" points="306.55,419.858 306.001,419.858 300.699,419.858 300.274,419.858 300.274,432.045 
		300.699,432.045 309.841,432.045 310.023,432.045 310.023,423.88 	"/>
	
		<linearGradient id="SVGID_9_" gradientUnits="userSpaceOnUse" x1="321.8684" y1="370.3584" x2="321.8684" y2="381.3271" gradientTransform="matrix(1 0 0 1 -16.7197 50.1094)">
		<stop  offset="0" style="stop-color:#E7F4FC"/>
		<stop  offset="1" style="stop-color:#DEEDF9"/>
	</linearGradient>
	<polygon fill="url(#SVGID_9_)" points="300.883,431.436 300.883,420.468 306.245,420.468 309.414,424.063 309.414,431.436 	"/>
	
		<linearGradient id="SVGID_10_" gradientUnits="userSpaceOnUse" x1="321.8684" y1="370.9678" x2="321.8684" y2="380.7178" gradientTransform="matrix(1 0 0 1 -16.7197 50.1094)">
		<stop  offset="0" style="stop-color:#CCE7F8"/>
		<stop  offset="1" style="stop-color:#BBDEF4"/>
	</linearGradient>
	<polygon fill="url(#SVGID_10_)" points="301.492,430.827 301.492,421.077 306.001,421.077 308.804,424.306 308.804,430.827 	"/>
	
		<linearGradient id="SVGID_11_" gradientUnits="userSpaceOnUse" x1="324.4875" y1="369.7485" x2="324.4875" y2="374.493" gradientTransform="matrix(1 0 0 1 -16.7197 50.1094)">
		<stop  offset="0" style="stop-color:#99BCE3"/>
		<stop  offset="0.5569" style="stop-color:#89ABD9"/>
		<stop  offset="1" style="stop-color:#80A2D4"/>
	</linearGradient>
	<path fill="url(#SVGID_11_)" d="M305.636,424.428c0,0,3.168-0.792,4.387,0.183c0-0.061,0-0.73,0-0.73l-3.534-4.022
		c0,0-0.914,0-0.976,0C306.855,421.686,305.636,424.428,305.636,424.428z"/>
	
		<linearGradient id="SVGID_12_" gradientUnits="userSpaceOnUse" x1="323.2512" y1="373.4849" x2="324.6472" y2="372.0888" gradientTransform="matrix(1 0 0 1 -16.7197 50.1094)">
		<stop  offset="0" style="stop-color:#E7F4FC"/>
		<stop  offset="0.5181" style="stop-color:#E5F2FB"/>
		<stop  offset="0.7045" style="stop-color:#DDEFFA"/>
		<stop  offset="0.8371" style="stop-color:#D1E9F9"/>
		<stop  offset="0.872" style="stop-color:#CCE7F8"/>
		<stop  offset="1" style="stop-color:#BDD8EF"/>
	</linearGradient>
	<path fill="url(#SVGID_12_)" d="M306.55,423.636c0.182-0.731,0.305-1.768,0.061-2.681l2.438,2.681
		c-0.244-0.061-0.609-0.122-0.975-0.122C307.525,423.514,306.977,423.576,306.55,423.636z"/>
</g>
<g>
	
		<linearGradient id="SVGID_13_" gradientUnits="userSpaceOnUse" x1="309.8684" y1="437.6587" x2="315.0208" y2="437.6587" gradientTransform="matrix(1 0 0 -1 -8.3599 865.9443)">
		<stop  offset="0" style="stop-color:#99BCE3"/>
		<stop  offset="0.5569" style="stop-color:#89ABD9"/>
		<stop  offset="1" style="stop-color:#80A2D4"/>
	</linearGradient>
	<rect x="301.509" y="428.011" fill="url(#SVGID_13_)" width="5.152" height="0.549"/>
	
		<linearGradient id="SVGID_14_" gradientUnits="userSpaceOnUse" x1="309.8684" y1="441.0747" x2="315.0208" y2="441.0747" gradientTransform="matrix(1 0 0 -1 -8.3599 865.9443)">
		<stop  offset="0" style="stop-color:#99BCE3"/>
		<stop  offset="0.5569" style="stop-color:#89ABD9"/>
		<stop  offset="1" style="stop-color:#80A2D4"/>
	</linearGradient>
	<rect x="301.509" y="424.595" fill="url(#SVGID_14_)" width="5.152" height="0.549"/>
	
		<linearGradient id="SVGID_15_" gradientUnits="userSpaceOnUse" x1="309.8684" y1="439.3374" x2="315.0208" y2="439.3374" gradientTransform="matrix(1 0 0 -1 -8.3599 865.9443)">
		<stop  offset="0" style="stop-color:#99BCE3"/>
		<stop  offset="0.5569" style="stop-color:#89ABD9"/>
		<stop  offset="1" style="stop-color:#80A2D4"/>
	</linearGradient>
	<rect x="301.509" y="426.333" fill="url(#SVGID_15_)" width="5.152" height="0.55"/>
</g>
</svg>
